<?xml version="1.0" standalone="no"?>
<!DOCTYPE svg PUBLIC "-//W3C//DTD SVG 20010904//EN"
 "http://www.w3.org/TR/2001/REC-SVG-20010904/DTD/svg10.dtd">
<svg version="1.0" xmlns="http://www.w3.org/2000/svg"
 width="600.000000pt" height="985.000000pt" viewBox="0 0 600.000000 985.000000"
 preserveAspectRatio="xMidYMid meet">

<g transform="translate(0.000000,985.000000) scale(0.100000,-0.100000)"
fill="#000000" stroke="none">
<path d="M3070 9790 c0 -6 -4 -8 -10 -5 -5 3 -10 2 -10 -3 0 -4 -12 -9 -27 -9
-74 -3 -142 -12 -161 -22 -12 -6 -45 -16 -74 -21 -28 -6 -59 -17 -68 -25 -9
-8 -25 -15 -34 -15 -10 0 -32 -11 -48 -25 -16 -14 -34 -23 -39 -19 -5 3 -9 0
-9 -5 0 -6 -6 -11 -14 -11 -7 0 -19 -7 -26 -15 -7 -8 -21 -15 -30 -15 -10 0
-27 -11 -38 -25 -11 -14 -24 -25 -29 -25 -15 0 -63 -50 -63 -66 0 -8 -5 -12
-10 -9 -6 3 -14 -5 -20 -19 -5 -14 -16 -26 -24 -26 -8 0 -19 -6 -23 -13 -4 -8
-23 -24 -40 -37 -18 -13 -33 -30 -33 -37 0 -7 -4 -13 -9 -13 -11 0 -61 -105
-61 -126 0 -8 -5 -13 -12 -11 -6 1 -17 -8 -23 -21 -7 -12 -19 -28 -27 -35 -9
-7 -18 -24 -22 -39 -4 -16 -13 -28 -21 -28 -8 0 -15 -4 -15 -9 0 -5 -24 -33
-54 -63 -29 -30 -59 -72 -66 -92 -6 -21 -14 -35 -16 -33 -8 8 -84 -75 -84 -92
0 -9 -9 -36 -20 -60 -11 -24 -20 -54 -20 -66 0 -13 -6 -30 -14 -37 -7 -8 -17
-24 -20 -36 -4 -12 -15 -26 -25 -32 -10 -5 -21 -24 -24 -42 -4 -18 -16 -76
-27 -128 -12 -52 -24 -152 -27 -222 -5 -115 -4 -128 11 -128 9 0 16 1 16 3 0
1 9 26 19 56 12 32 33 64 55 83 28 24 35 37 35 66 0 61 38 215 70 283 46 97
106 138 154 104 12 -8 29 -15 38 -15 10 0 19 -5 21 -11 2 -6 57 -21 122 -34
66 -14 126 -31 135 -38 9 -8 24 -17 34 -20 10 -4 15 -11 12 -17 -4 -6 6 -10
25 -10 29 0 38 -3 87 -28 13 -7 34 -12 48 -12 14 0 25 -3 25 -7 0 -9 48 -33
63 -33 6 0 15 -8 22 -17 20 -27 92 -38 240 -36 194 3 199 3 298 2 60 0 97 4
119 15 31 16 109 22 122 9 9 -9 38 -13 126 -14 41 0 95 -6 120 -14 39 -11 151
-27 200 -27 8 0 29 -14 47 -31 35 -33 36 -37 61 -249 6 -53 10 -60 42 -77 37
-19 53 -51 26 -51 -9 0 -16 -4 -16 -10 0 -14 27 -13 32 2 5 15 28 1 28 -18 0
-8 -5 -12 -11 -9 -6 4 -10 1 -9 -6 4 -25 -12 -59 -26 -59 -19 0 -18 -8 9 -44
29 -38 57 -98 57 -121 0 -9 7 -29 16 -46 17 -35 10 -77 -11 -59 -10 8 -12 2
-8 -35 3 -25 0 -87 -6 -137 -16 -126 -20 -238 -8 -245 6 -3 7 -1 4 4 -4 6 0
13 8 17 8 3 15 11 15 18 1 25 55 68 78 61 28 -7 30 -45 3 -72 -15 -15 -17 -27
-12 -52 8 -41 27 -43 49 -6 9 15 38 50 64 78 50 53 69 110 49 148 -14 26 -14
98 0 106 7 5 3 14 -11 27 -19 18 -21 28 -16 77 3 31 5 57 6 59 0 1 8 2 19 2
10 0 31 17 47 38 15 20 36 43 46 50 27 20 22 29 -28 51 l-45 20 6 63 c6 60 12
109 35 251 9 55 15 282 10 347 -1 13 -11 32 -22 42 -22 18 -27 63 -11 79 7 7
3 27 -13 59 -19 41 -21 52 -12 78 9 23 8 42 -5 89 -10 33 -15 68 -11 76 9 25
-25 149 -48 174 -11 12 -22 30 -23 40 -3 35 -23 68 -54 91 -18 13 -31 32 -31
45 0 44 -165 235 -216 251 -12 4 -34 25 -48 47 -42 63 -103 112 -169 136 -34
12 -73 34 -88 51 -29 31 -112 63 -176 68 -18 2 -43 10 -54 18 -12 8 -28 12
-35 9 -8 -3 -36 2 -62 10 -47 15 -118 17 -159 3 -14 -4 -23 -3 -23 3 0 5 -8 9
-17 9 -10 -1 -30 2 -45 5 -18 5 -28 3 -28 -3z m1020 -1990 c0 -5 -2 -10 -4
-10 -3 0 -8 5 -11 10 -3 6 -1 10 4 10 6 0 11 -4 11 -10z m227 -382 c-3 -8 -6
-5 -6 6 -1 11 2 17 5 13 3 -3 4 -12 1 -19z m-47 -37 c0 -5 -10 -11 -22 -14
-22 -6 -22 -6 -4 8 23 17 26 18 26 6z"/>
<path d="M4000 7930 c0 -5 5 -10 11 -10 5 0 7 5 4 10 -3 6 -8 10 -11 10 -2 0
-4 -4 -4 -10z"/>
<path d="M1757 7924 c-4 -4 -7 -17 -7 -28 1 -19 1 -20 11 -3 11 19 8 43 -4 31z"/>
<path d="M1776 7893 c-3 -3 -6 -14 -6 -24 0 -10 -6 -22 -12 -26 -23 -14 -64
-107 -60 -136 2 -15 8 -25 13 -21 6 3 9 -15 8 -46 -2 -31 3 -55 11 -63 10 -10
12 -9 8 3 -3 8 -2 38 2 67 5 39 3 54 -7 57 -7 3 -13 14 -13 25 0 14 5 19 15
15 11 -5 15 2 16 27 0 19 3 27 6 19 13 -31 42 -53 55 -42 20 16 11 130 -12
142 -9 5 -20 6 -24 3z"/>
<path d="M1825 7689 c-10 -15 3 -25 16 -12 7 7 7 13 1 17 -6 3 -14 1 -17 -5z"/>
<path d="M4555 7640 c8 -16 15 -36 15 -44 0 -8 -39 -42 -87 -76 -71 -49 -87
-65 -85 -83 2 -12 8 -26 13 -31 5 -6 9 -25 9 -42 0 -18 7 -40 16 -49 9 -9 15
-17 13 -18 -2 -2 -17 -8 -32 -15 -17 -7 -34 -25 -40 -42 -6 -17 -15 -30 -19
-30 -4 0 -8 -11 -8 -24 0 -14 -5 -28 -11 -31 -6 -4 -8 -14 -5 -22 3 -8 1 -11
-4 -8 -6 3 -10 -2 -10 -11 0 -26 -23 -84 -33 -84 -5 0 -6 -7 -3 -15 3 -9 -1
-18 -9 -21 -8 -4 -15 -12 -15 -19 0 -7 -4 -15 -8 -17 -5 -1 -26 -38 -47 -81
-28 -56 -48 -83 -73 -97 -47 -28 -67 -19 -79 37 -10 41 -9 50 7 71 11 13 16
30 13 39 -3 8 -2 18 4 22 5 3 7 29 3 61 -3 30 -9 48 -12 40 -26 -69 -48 -153
-43 -169 3 -10 -1 -31 -10 -47 -8 -16 -15 -35 -15 -42 0 -8 -11 -47 -25 -87
-13 -41 -28 -93 -31 -115 -4 -22 -10 -40 -15 -40 -5 0 -9 -10 -9 -23 0 -12 -9
-47 -20 -77 -11 -30 -27 -82 -36 -115 -9 -33 -19 -64 -24 -70 -4 -5 -11 -21
-15 -35 -4 -14 -32 -49 -61 -79 -30 -29 -54 -57 -54 -62 0 -5 -13 -6 -29 -3
-34 7 -161 -47 -161 -68 -1 -7 -19 -26 -40 -43 -22 -16 -37 -36 -35 -42 2 -7
1 -12 -3 -11 -4 1 -31 -21 -60 -50 -28 -29 -57 -52 -62 -52 -6 0 -10 -7 -10
-15 0 -9 -7 -18 -15 -21 -8 -4 -15 -12 -15 -20 0 -8 -4 -14 -9 -14 -9 0 -68
-38 -169 -110 -23 -16 -47 -30 -51 -30 -5 0 -11 -7 -15 -15 -3 -8 -12 -15 -19
-15 -8 0 -25 -9 -39 -19 -38 -31 -184 -66 -195 -48 -3 6 -1 7 5 3 7 -4 12 -2
12 3 0 6 -16 11 -36 11 -19 0 -33 -4 -30 -9 12 -19 -22 -18 -38 1 -12 13 -25
18 -40 14 -16 -4 -29 1 -41 14 -10 11 -28 20 -39 20 -12 0 -30 6 -41 14 -28
18 -66 26 -90 16 -15 -5 -27 0 -46 20 -14 15 -33 30 -43 33 -9 4 -16 13 -16
22 0 8 -4 15 -9 15 -15 0 -60 85 -81 150 -13 42 -18 75 -14 104 7 47 -19 146
-38 146 -6 0 -8 7 -4 15 3 8 2 15 -2 15 -11 1 -40 45 -48 74 -5 20 -2 26 10
26 10 0 16 -9 16 -24 0 -15 7 -27 19 -31 10 -3 27 -17 37 -32 11 -14 30 -38
44 -52 14 -15 32 -40 40 -55 18 -35 107 -126 123 -126 7 0 29 -17 50 -39 34
-35 43 -39 106 -45 90 -9 171 2 194 25 12 13 14 19 5 20 -7 0 -24 2 -38 3 -14
1 -43 3 -65 4 -27 2 -36 5 -26 11 10 7 10 10 1 16 -7 4 -16 2 -21 -6 -9 -16
-18 -9 -23 18 -4 20 1 20 137 20 149 0 227 13 227 38 0 16 -1 17 -143 17 -54
0 -119 7 -144 14 -26 8 -67 14 -92 15 -48 0 -97 23 -115 52 -15 23 8 37 49 30
48 -8 178 -44 198 -54 10 -6 69 -10 130 -9 108 2 135 1 195 -2 23 -1 293 9
300 11 10 4 -2 41 -21 64 -15 19 -40 32 -81 43 -52 14 -62 14 -96 0 -29 -12
-40 -12 -43 -3 -3 7 -6 4 -6 -5 -1 -12 -9 -18 -26 -18 -14 0 -25 -5 -25 -11 0
-7 -12 -9 -34 -5 -20 4 -37 2 -41 -4 -10 -15 -48 -12 -75 7 -14 10 -31 18 -38
19 -23 4 -41 25 -44 52 -3 25 -6 27 -42 25 -23 -2 -55 -14 -76 -28 -42 -29
-97 -47 -120 -40 -8 3 -37 7 -64 9 -62 6 -85 22 -130 90 -43 65 -62 81 -53 44
5 -18 2 -28 -8 -32 -10 -3 -15 1 -15 11 0 13 -3 14 -12 5 -16 -16 -28 -15 -28
3 0 8 -11 17 -24 21 -14 3 -27 15 -30 28 -9 37 -46 76 -71 76 -18 0 -28 10
-42 40 -10 22 -23 38 -30 35 -7 -2 -15 0 -18 5 -4 6 -19 10 -35 10 -16 0 -35
6 -42 13 -7 6 -29 25 -48 41 -19 15 -39 38 -45 50 -6 11 -20 25 -33 31 -12 5
-22 17 -22 26 0 9 -7 19 -15 23 -8 3 -15 16 -16 28 0 22 -1 22 -9 3 -6 -16 -9
-17 -13 -5 -10 28 -19 75 -27 145 -15 132 -26 159 -56 134 -17 -14 -67 -14
-158 2 -43 8 -61 7 -66 -1 -12 -19 -57 -39 -114 -49 -29 -5 -69 -18 -87 -28
-19 -11 -61 -25 -94 -31 -33 -7 -80 -17 -105 -23 -25 -6 -74 -13 -110 -16 -70
-6 -122 -32 -191 -95 -40 -36 -53 -71 -70 -183 -6 -38 -14 -77 -19 -86 -4 -8
-6 -26 -3 -40 8 -44 -32 -113 -104 -175 -89 -77 -123 -113 -123 -130 0 -13
-59 -64 -75 -64 -4 0 -20 -11 -37 -25 -16 -14 -36 -25 -43 -25 -17 0 -67 -59
-59 -71 3 -5 -6 -9 -19 -9 -28 0 -35 -7 -72 -75 -30 -54 -133 -198 -147 -203
-4 -2 -8 -282 -8 -623 l0 -619 33 0 c64 0 161 -68 193 -136 13 -27 13 -36 2
-64 l-14 -33 102 -104 c93 -95 104 -103 124 -93 12 6 29 30 39 53 10 23 37 71
59 106 23 35 44 79 48 97 7 36 109 148 126 138 4 -3 8 -18 8 -33 0 -15 4 -31
10 -37 11 -11 28 -225 34 -449 4 -127 11 -204 31 -305 14 -74 31 -171 36 -215
5 -44 14 -96 19 -115 18 -66 13 -109 -18 -138 -75 -70 -85 -71 -136 -8 -16 20
-34 36 -41 36 -6 0 -26 19 -45 42 -19 23 -41 49 -48 57 -10 12 -15 13 -18 3
-3 -6 -10 -9 -15 -6 -6 3 -4 11 5 17 13 10 11 17 -17 49 -18 20 -42 52 -55 70
-163 233 -218 300 -228 272 -3 -6 -50 12 -112 43 -59 29 -110 53 -114 53 -5 0
-8 -26 -8 -58 l0 -57 58 -23 c32 -12 61 -22 66 -22 4 0 14 -6 22 -12 8 -7 33
-29 57 -48 24 -19 65 -63 92 -98 l48 -63 -2 -95 -2 -94 31 0 c22 0 30 5 30 18
0 10 6 27 14 37 7 10 11 27 8 37 -10 38 27 7 90 -74 29 -38 86 -105 115 -136
13 -12 23 -25 23 -28 0 -5 67 -91 80 -104 16 -15 79 -113 105 -162 17 -32 37
-58 45 -58 11 0 12 -2 3 -8 -10 -6 -8 -16 6 -42 10 -19 24 -53 31 -75 7 -22
16 -44 20 -50 19 -24 51 -136 57 -198 8 -84 18 -93 128 -102 44 -4 116 -16
160 -27 51 -14 109 -21 159 -20 58 1 87 -3 108 -16 22 -13 30 -14 40 -4 17 17
49 15 76 -4 30 -20 35 -15 22 23 -8 22 -22 35 -51 46 -21 8 -37 11 -34 6 4 -5
-2 -9 -13 -9 -18 0 -75 54 -66 62 10 11 -47 50 -92 62 -27 8 -60 17 -74 22
l-25 7 23 -25 c41 -45 23 -52 -35 -12 -21 14 -39 21 -41 15 -2 -6 -17 3 -34
19 -16 17 -37 30 -47 30 -9 0 -27 7 -39 16 -12 8 -26 13 -31 10 -4 -3 -19 6
-31 19 -13 14 -27 25 -32 25 -22 0 -108 132 -108 165 0 4 -7 13 -15 21 -8 9
-15 24 -15 35 0 11 -5 29 -11 41 -6 11 -8 22 -6 25 3 2 18 -17 33 -44 15 -26
31 -50 34 -53 4 -3 23 -34 43 -70 21 -36 55 -85 78 -110 46 -51 42 -38 -11 35
-21 28 -61 95 -90 150 -30 55 -64 117 -77 138 -27 43 -24 56 10 40 12 -6 45
-19 72 -28 79 -28 237 -95 271 -116 40 -24 48 -24 225 -9 165 14 327 4 504
-31 326 -66 564 -240 645 -472 l18 -52 94 -38 c51 -21 103 -42 116 -47 13 -6
27 -10 31 -10 5 0 33 -11 63 -25 64 -29 334 -140 658 -271 129 -53 287 -117
350 -144 156 -65 375 -155 490 -201 52 -20 114 -47 137 -58 23 -12 46 -21 51
-21 9 0 33 -10 147 -60 22 -10 94 -39 160 -65 66 -27 125 -52 130 -56 6 -4 71
-30 145 -59 220 -84 621 -246 697 -281 24 -10 47 -19 53 -19 7 0 10 1020 10
3108 l0 3108 -29 17 c-36 21 -41 21 -41 0 0 -12 -14 -4 -47 28 -31 29 -88 66
-155 99 -60 29 -120 64 -135 77 -16 13 -59 40 -96 59 -38 19 -98 56 -134 81
-66 46 -273 149 -373 185 -30 11 -93 35 -140 53 -47 19 -98 37 -115 41 -16 4
-63 22 -103 41 -89 41 -97 41 -77 3z m-13 -230 c22 0 78 -53 78 -74 0 -20 -5
-22 -52 -21 -29 0 -62 6 -73 12 -19 11 -19 12 -2 30 9 11 14 23 11 26 -4 4 0
9 9 13 9 3 15 11 13 17 -1 7 -1 9 1 5 3 -5 9 -8 15 -8z m3 -330 c3 -5 -3 -10
-15 -10 -12 0 -18 5 -15 10 3 6 10 10 15 10 5 0 12 -4 15 -10z m492 -106 c-3
-3 -12 -4 -19 -1 -8 3 -5 6 6 6 11 1 17 -2 13 -5z m-17 -38 c0 -7 -7 -30 -15
-49 -8 -20 -15 -41 -15 -47 0 -14 36 -12 92 4 40 13 48 13 58 1 7 -8 9 -18 6
-24 -3 -5 0 -12 6 -14 10 -4 10 -7 1 -14 -7 -5 -13 -26 -15 -47 -2 -30 3 -43
20 -56 26 -22 28 -28 6 -26 -9 0 -18 -8 -20 -18 -4 -27 -22 -35 -51 -22 -23
10 -24 15 -19 62 5 46 4 52 -14 57 -11 3 -23 1 -26 -4 -10 -16 -35 12 -29 32
4 12 -1 19 -15 24 -15 5 -29 -2 -51 -24 -32 -32 -59 -40 -59 -18 0 8 -11 20
-24 27 -14 7 -27 18 -30 25 -8 23 5 53 26 58 14 4 19 11 15 21 -10 27 61 62
131 65 12 1 22 -5 22 -13z m-219 -233 c54 -28 81 -65 61 -85 -9 -9 -18 -8 -39
1 -22 10 -24 14 -12 22 11 7 9 9 -8 9 -26 0 -58 28 -68 59 -9 28 4 27 66 -6z
m479 -63 c0 -5 6 -7 13 -4 16 6 92 -25 83 -33 -3 -4 -17 -1 -30 6 -20 11 -28
10 -49 -4 -15 -9 -31 -14 -37 -10 -13 8 -13 35 1 35 5 0 7 5 4 10 -3 6 -1 10
4 10 6 0 11 -4 11 -10z m-265 -120 c3 -5 -1 -10 -10 -10 -9 0 -13 5 -10 10 3
6 8 10 10 10 2 0 7 -4 10 -10z m453 -18 c2 -13 -3 -25 -12 -28 -9 -3 -16 -12
-16 -20 0 -14 -16 -14 -165 0 -50 4 -95 17 -95 27 0 5 -7 9 -16 9 -14 0 -14 3
-4 15 7 8 25 15 40 15 30 0 83 -23 74 -33 -8 -8 53 9 101 27 55 21 89 17 93
-12z m-286 -121 c40 -35 34 -48 -7 -17 -19 15 -40 24 -47 20 -8 -5 -9 -2 -5 9
3 10 2 17 -4 17 -6 0 -7 5 -4 10 7 11 14 8 67 -39z m88 39 c12 -8 11 -10 -7
-10 -13 0 -23 5 -23 10 0 13 11 13 30 0z m480 -83 c0 -4 5 -5 12 -1 7 4 8 3 4
-4 -11 -18 -38 -13 -70 12 l-29 24 42 -11 c22 -6 41 -15 41 -20z m-966 -3 c9
-3 16 -13 16 -21 0 -9 8 -22 18 -29 10 -8 12 -13 5 -14 -7 0 -20 12 -30 28
-10 15 -22 30 -28 34 -12 9 -2 10 19 2z m-4656 -2743 c15 -22 15 -22 -11 -10
-15 7 -27 19 -27 26 0 20 20 12 38 -16z m160 -102 c2 -23 2 -23 -13 -5 -18 24
-20 39 -2 34 6 -3 13 -15 15 -29z m228 -268 c-5 -7 -11 -7 -20 2 -8 6 -12 15
-9 20 2 4 1 7 -4 7 -13 0 -63 46 -63 59 0 6 -5 11 -10 11 -17 0 -100 86 -100
104 0 9 -4 16 -10 16 -5 0 -10 6 -10 12 0 7 52 -40 116 -104 64 -64 113 -121
110 -127z m371 -451 c0 -3 3 -13 8 -23 4 -10 5 -21 1 -24 -3 -3 -9 3 -12 13
-4 10 -16 31 -26 46 -26 37 -22 47 6 18 13 -14 23 -27 23 -30z"/>
<path d="M1751 7598 c0 -32 -5 -58 -11 -58 -16 0 -12 -103 5 -144 9 -20 13
-41 10 -46 -4 -6 1 -20 9 -32 9 -12 16 -29 16 -38 0 -9 16 -32 36 -53 21 -21
34 -43 31 -51 -3 -8 1 -20 8 -26 8 -7 12 -16 9 -21 -3 -5 -1 -9 3 -9 16 0 91
-75 97 -97 4 -12 2 -31 -4 -43 -13 -24 2 -60 25 -60 8 0 15 -4 15 -10 0 -5 12
-13 28 -16 15 -4 32 -11 38 -15 17 -14 172 -32 202 -24 86 21 131 9 116 -30
-7 -18 12 -20 20 -2 3 6 4 3 1 -8 -7 -31 43 -26 65 6 27 39 60 139 54 163 -3
14 2 28 15 40 19 17 19 18 0 49 -42 72 -138 137 -219 151 -3 1 -21 11 -40 22
-19 12 -53 27 -75 34 -22 7 -42 16 -45 19 -3 3 -25 19 -50 35 -25 16 -49 35
-53 43 -4 7 -14 13 -22 13 -7 0 -20 6 -27 13 -7 7 -25 20 -40 29 -14 10 -29
26 -32 36 -7 20 -65 58 -83 54 -7 -2 -22 18 -34 43 -17 35 -26 45 -40 42 -13
-4 -19 2 -22 22 -2 14 -5 0 -6 -31z m327 -454 c16 -21 39 -47 50 -58 24 -21
21 -38 -6 -30 -68 22 -129 84 -116 117 10 26 41 14 72 -29z"/>
<path d="M3562 7200 c-30 -30 -34 -31 -66 -19 -26 9 -48 10 -97 0 -35 -6 -116
-16 -179 -21 -384 -33 -412 -36 -420 -51 -5 -8 -20 -14 -32 -14 -16 0 -23 -6
-23 -20 0 -25 -13 -35 -45 -35 l-25 -1 21 -17 c12 -9 36 -25 53 -34 18 -10 31
-25 31 -37 0 -11 9 -22 20 -26 11 -3 20 -9 20 -13 0 -4 19 -8 43 -9 39 -1 49
-8 101 -60 31 -32 60 -63 64 -69 7 -10 74 -44 87 -44 4 0 4 8 1 17 -4 10 -4
14 0 10 13 -13 31 13 27 37 -3 14 -14 34 -24 45 -23 24 -24 35 -4 27 19 -7 19
3 1 23 -27 31 -28 59 -5 82 l22 22 46 -52 c36 -40 54 -52 81 -55 33 -3 90 16
90 32 0 4 16 18 36 32 l37 24 32 -37 c18 -21 36 -34 39 -29 3 6 23 12 43 15
116 17 142 34 96 64 -15 9 -30 20 -33 24 -3 3 -22 9 -42 13 -21 4 -40 12 -44
18 -4 6 -3 8 3 5 5 -3 21 5 36 19 31 29 115 53 175 49 43 -2 50 3 31 22 -6 6
-17 22 -23 35 -14 27 -54 48 -105 55 -32 4 -42 1 -69 -27z m73 -60 c3 -5 -3
-10 -14 -10 -12 0 -21 5 -21 10 0 6 6 10 14 10 8 0 18 -4 21 -10z"/>
<path d="M1702 7035 c0 -16 2 -22 5 -12 2 9 2 23 0 30 -3 6 -5 -1 -5 -18z"/>
<path d="M1890 7046 c0 -2 9 -6 20 -9 11 -3 18 -1 14 4 -5 9 -34 13 -34 5z"/>
<path d="M4180 7036 c0 -7 -9 -16 -21 -19 -15 -4 -20 -12 -17 -29 5 -34 18
-28 45 20 19 34 21 42 8 42 -8 0 -15 -6 -15 -14z"/>
<path d="M2320 6602 c-31 -25 -21 -52 20 -52 25 0 30 4 30 24 0 37 -23 50 -50
28z"/>
<path d="M3325 6170 c-9 -15 14 -40 36 -40 27 0 35 21 14 37 -22 16 -41 17
-50 3z"/>
<path d="M440 3426 c0 -12 50 -88 65 -98 5 -4 6 -8 2 -8 -7 0 26 -48 86 -123
12 -16 30 -43 39 -60 14 -25 18 -27 24 -14 4 11 -7 35 -33 70 -22 28 -56 77
-76 107 -44 65 -107 139 -107 126z"/>
<path d="M475 3130 c3 -5 8 -10 11 -10 2 0 4 5 4 10 0 6 -5 10 -11 10 -5 0 -7
-4 -4 -10z"/>
<path d="M495 3100 c3 -5 8 -10 11 -10 2 0 4 5 4 10 0 6 -5 10 -11 10 -5 0 -7
-4 -4 -10z"/>
<path d="M0 3065 c0 -42 30 -76 64 -73 14 1 23 5 20 9 -2 4 0 10 6 14 21 13 9
46 -22 65 -50 31 -68 27 -68 -15z"/>
<path d="M489 3049 c-11 -7 -10 -9 6 -9 18 -1 18 -2 4 -13 -14 -10 -14 -14 -3
-25 7 -6 20 -12 29 -12 8 0 15 -4 15 -9 0 -9 71 -41 90 -41 6 0 10 4 10 10 0
12 -59 80 -68 79 -21 -3 -42 3 -55 15 -9 9 -19 11 -28 5z"/>
<path d="M1669 2211 c107 -91 211 -208 211 -237 0 -9 -5 -12 -11 -8 -17 10
-189 12 -189 2 0 -4 5 -8 10 -8 6 0 10 -9 10 -20 0 -17 -4 -19 -27 -14 -16 4
-44 13 -63 21 -30 12 -33 16 -18 24 12 7 24 6 37 -1 28 -14 41 -13 41 6 0 11
-6 13 -19 9 -11 -3 -22 -1 -26 5 -4 6 -15 8 -26 5 -11 -4 -19 -2 -19 4 0 6 -5
11 -11 11 -5 0 -7 -4 -4 -10 4 -6 -5 -10 -19 -10 -14 0 -26 3 -26 8 0 4 -13 7
-29 8 -26 1 -28 -1 -15 -13 19 -19 18 -23 -5 -23 -10 0 -21 8 -24 19 -6 23
-50 30 -224 37 -70 2 -158 8 -195 12 -37 4 -69 5 -70 2 -3 -5 -92 -66 -107
-72 -11 -4 -70 -125 -92 -187 l-19 -54 27 -35 c14 -19 39 -40 55 -46 15 -6 28
-14 28 -19 0 -19 194 -99 302 -125 104 -24 130 -26 323 -26 190 0 222 3 338
27 244 52 420 137 538 261 27 27 30 36 25 74 -10 77 -67 168 -147 234 -60 50
-147 98 -177 98 -10 0 -23 5 -29 11 -7 7 -19 9 -28 5 -14 -5 -15 -9 -6 -20 7
-8 8 -17 3 -20 -11 -7 -91 49 -99 69 -3 8 -8 13 -12 11 -4 -3 -26 0 -49 5 -24
5 -79 11 -124 12 l-81 4 42 -36z m388 -159 c19 -12 4 -62 -19 -62 -16 0 -19 5
-16 25 3 14 1 25 -3 25 -5 0 -9 5 -9 10 0 12 30 13 47 2z m-866 -85 c-7 -7
-20 -8 -38 -1 -40 14 -39 31 2 26 24 -3 35 0 36 9 1 8 3 6 6 -5 3 -10 0 -23
-6 -29z m184 13 c3 -6 -1 -13 -10 -16 -19 -8 -30 0 -20 15 8 14 22 14 30 1z
m555 -290 c0 -12 -41 -23 -71 -18 -21 4 -20 5 11 15 46 14 60 15 60 3z m-256
-6 c9 -3 16 -10 16 -16 0 -10 -70 0 -84 13 -11 10 43 12 68 3z"/>
<path d="M442 1838 c2 -6 10 -14 16 -16 7 -2 10 2 6 12 -7 18 -28 22 -22 4z"/>
<path d="M3034 88 c-22 -24 -48 -53 -59 -66 l-19 -23 61 2 60 2 -1 64 c0 34
-1 63 -1 63 -1 0 -19 -19 -41 -42z"/>
</g>
</svg>
